<?xml version="1.0" encoding="UTF-8" standalone="no"?>
<!-- Created with Inkscape (http://www.inkscape.org/) -->

<svg
   width="119.1152mm"
   height="93.07029mm"
   viewBox="0 0 119.1152 93.07029"
   version="1.1"
   id="svg19470"
   inkscape:version="1.1 (c68e22c387, 2021-05-23)"
   sodipodi:docname="WhoCaresLogoV2.svg"
   xmlns:inkscape="http://www.inkscape.org/namespaces/inkscape"
   xmlns:sodipodi="http://sodipodi.sourceforge.net/DTD/sodipodi-0.dtd"
   xmlns="http://www.w3.org/2000/svg"
   xmlns:svg="http://www.w3.org/2000/svg">
  <sodipodi:namedview
     id="namedview19472"
     pagecolor="#ffffff"
     bordercolor="#666666"
     borderopacity="1.0"
     inkscape:pageshadow="2"
     inkscape:pageopacity="0.0"
     inkscape:pagecheckerboard="0"
     inkscape:document-units="mm"
     showgrid="false"
     fit-margin-top="0"
     fit-margin-left="0"
     fit-margin-right="0"
     fit-margin-bottom="0"
     inkscape:zoom="0.69664703"
     inkscape:cx="386.13529"
     inkscape:cy="480.8748"
     inkscape:window-width="1920"
     inkscape:window-height="986"
     inkscape:window-x="-11"
     inkscape:window-y="-11"
     inkscape:window-maximized="1"
     inkscape:current-layer="layer1" />
  <defs
     id="defs19467" />
  <g
     inkscape:label="Layer 1"
     inkscape:groupmode="layer"
     id="layer1"
     transform="translate(-2.7288626,-21.448231)">
    <path
       id="path19295"
       style="color:#000000;fill:#00bc4b;stroke-width:4.7003;-inkscape-stroke:none"
       d="m 62.486374,21.448238 a 3.972802,3.972802 0 0 0 -2.552816,0.922424 L 4.1566033,68.923374 a 3.972802,3.972802 0 0 0 2.5445481,7.023346 h 5.6601176 c 0.03759,-0.01638 0.102743,-0.04173 0.137459,-0.05736 0.11784,-0.05306 0.21948,-0.102404 0.31006,-0.150894 0.09058,-0.04849 0.170084,-0.09611 0.242363,-0.146246 0.07227,-0.05013 0.13757,-0.10273 0.200504,-0.160713 0.06293,-0.05798 0.123487,-0.121735 0.186034,-0.193786 0.125098,-0.1441 0.258334,-0.32253 0.435634,-0.560173 0.13091,-0.175464 0.273447,-0.34829 0.436666,-0.527101 0.163216,-0.17881 0.346895,-0.36354 0.560173,-0.562239 0.213272,-0.198697 0.456327,-0.411345 0.73742,-0.646472 0.281096,-0.235122 0.600199,-0.492731 0.966867,-0.780831 0.547425,-0.430125 1.098891,-0.857266 1.546159,-1.198893 0.447267,-0.341625 0.790723,-0.597546 0.921909,-0.685745 0.06559,-0.0441 0.171936,-0.12691 0.308506,-0.238228 0.13657,-0.11132 0.303149,-0.251002 0.488342,-0.410313 0.370393,-0.318619 0.815652,-0.714274 1.246436,-1.10949 0.208968,-0.191717 0.400349,-0.364324 0.57826,-0.520383 0.177911,-0.156059 0.342426,-0.295399 0.497644,-0.420648 0.155218,-0.125246 0.300948,-0.236617 0.441833,-0.335896 0.140886,-0.09928 0.276945,-0.186426 0.411861,-0.264584 0.134917,-0.07816 0.268867,-0.146896 0.406178,-0.208772 0.137308,-0.06188 0.277749,-0.11699 0.425812,-0.167431 0.148064,-0.05044 0.303594,-0.09619 0.470774,-0.140044 0.167179,-0.04385 0.346392,-0.08606 0.541051,-0.128156 0.173432,-0.03751 0.345499,-0.07887 0.516766,-0.124542 0.171265,-0.04567 0.341368,-0.09569 0.510045,-0.149344 0.168677,-0.05366 0.336119,-0.111143 0.501777,-0.172598 0.165664,-0.06146 0.329735,-0.126778 0.491961,-0.195855 0.162227,-0.06908 0.322742,-0.141558 0.481108,-0.218075 0.158366,-0.07652 0.314621,-0.157033 0.468704,-0.240811 0.154083,-0.08378 0.305895,-0.17114 0.455271,-0.262001 0.149376,-0.09086 0.296037,-0.184909 0.440283,-0.28267 0.281096,-0.1905 0.645393,-0.418812 1.005623,-0.633034 0.36023,-0.214228 0.716393,-0.414798 0.981853,-0.549323 0.126288,-0.064 0.264387,-0.141872 0.410826,-0.23151 0.146442,-0.08964 0.301704,-0.190757 0.463021,-0.301789 0.161319,-0.111033 0.328274,-0.232005 0.499195,-0.360185 0.17092,-0.12818 0.345649,-0.263544 0.520898,-0.404628 0.175249,-0.141083 0.351245,-0.28744 0.52555,-0.437181 0.174305,-0.149741 0.346612,-0.303184 0.514696,-0.457338 0.168088,-0.154151 0.331751,-0.309218 0.488344,-0.463537 0.156589,-0.154318 0.306139,-0.307615 0.445966,-0.457853 0.119272,-0.128151 0.233667,-0.238496 0.343133,-0.330729 0.109466,-0.09223 0.214188,-0.166479 0.314193,-0.222724 0.05,-0.02813 0.09906,-0.05168 0.146759,-0.0708 0.0477,-0.0191 0.09409,-0.03383 0.139528,-0.04393 0.04544,-0.01011 0.08958,-0.01545 0.132807,-0.01654 0.04323,-0.0011 0.08556,0.0024 0.126609,0.01035 0.04105,0.008 0.08096,0.02021 0.119888,0.03721 0.03892,0.01701 0.07685,0.03854 0.113689,0.06459 0.03683,0.02606 0.07269,0.05687 0.107487,0.09199 0.03479,0.03511 0.06849,0.07468 0.101285,0.118854 0.06558,0.08836 0.127169,0.194688 0.185002,0.319362 0.05783,0.124672 0.111837,0.267857 0.162263,0.428914 0.06263,0.200017 0.112411,0.397983 0.149345,0.595828 0.03694,0.197848 0.06104,0.395396 0.07183,0.593246 0.0108,0.19785 0.0086,0.39632 -0.0072,0.596347 -0.0158,0.200025 -0.045,0.401789 -0.08785,0.606163 -0.04286,0.204375 -0.09965,0.411287 -0.170013,0.622184 -0.07037,0.210899 -0.154366,0.425331 -0.252699,0.644922 -0.09833,0.219593 -0.210695,0.444436 -0.337447,0.674896 -0.126754,0.230458 -0.268118,0.466535 -0.423748,0.710034 -0.08863,0.138668 -0.171837,0.264525 -0.251664,0.378788 -0.07982,0.114263 -0.156038,0.217183 -0.230992,0.310057 -0.07496,0.09288 -0.148712,0.175601 -0.222726,0.250116 -0.07401,0.07451 -0.148307,0.140816 -0.225309,0.199988 -0.077,0.05917 -0.156371,0.111281 -0.240297,0.158128 -0.08392,0.04685 -0.172389,0.08855 -0.267166,0.126092 -0.09478,0.03754 -0.195849,0.07106 -0.305408,0.102317 -0.109559,0.03126 -0.22778,0.06037 -0.35605,0.08837 -0.138324,0.03019 -0.271052,0.06379 -0.39946,0.102319 -0.128408,0.03853 -0.252579,0.08191 -0.374137,0.130742 -0.121557,0.04883 -0.240347,0.103216 -0.358118,0.16433 -0.117769,0.06111 -0.234352,0.128756 -0.351399,0.204123 -0.117046,0.07536 -0.234595,0.158522 -0.353983,0.250113 -0.119388,0.09159 -0.240557,0.191482 -0.365353,0.301273 -0.124796,0.109792 -0.253275,0.229188 -0.38654,0.359151 -0.133265,0.129963 -0.271193,0.270605 -0.415994,0.422714 -0.16987,0.178443 -0.319505,0.338463 -0.449069,0.48369 -0.129564,0.14523 -0.239469,0.275469 -0.330214,0.395325 -0.09074,0.119859 -0.162078,0.229433 -0.215489,0.331764 -0.0267,0.05116 -0.04901,0.100573 -0.06666,0.148828 -0.01765,0.04825 -0.03101,0.09527 -0.03979,0.141594 -0.0088,0.04632 -0.01283,0.09157 -0.01291,0.13694 -10e-5,0.04538 0.004,0.09102 0.01241,0.136428 0.0084,0.04541 0.02101,0.09104 0.03773,0.137459 0.01669,0.04641 0.03718,0.09319 0.06201,0.141594 0.04966,0.09681 0.11584,0.198877 0.196887,0.309541 0.08104,0.110665 0.177411,0.229891 0.288353,0.362252 0.11025,0.131532 0.221319,0.258614 0.332796,0.380338 0.111479,0.121725 0.223139,0.238207 0.334864,0.349332 0.111723,0.111128 0.223362,0.217038 0.334346,0.316778 0.110985,0.09974 0.221467,0.193553 0.33073,0.28112 0.109262,0.08756 0.217458,0.168794 0.324011,0.243395 0.106553,0.0746 0.211331,0.14224 0.314193,0.203089 0.102862,0.06085 0.203605,0.114925 0.301791,0.161229 0.09818,0.04631 0.193763,0.08478 0.286288,0.115756 0.227292,0.07609 0.474736,0.146026 0.738973,0.208774 0.264231,0.06275 0.545536,0.11842 0.840258,0.167431 0.29472,0.04901 0.602634,0.09121 0.921391,0.12609 0.318754,0.03489 0.648099,0.06283 0.984435,0.0832 0.336338,0.02037 0.679862,0.0333 1.027327,0.03876 0.347466,0.0055 0.698957,0.0031 1.051099,-0.0067 0.352142,-0.0098 0.704866,-0.02718 1.055233,-0.05271 0.350366,-0.02553 0.698111,-0.05916 1.040246,-0.10077 0.220125,-0.02677 0.576763,-0.05978 1.034563,-0.09664 0.457801,-0.03685 1.016884,-0.07745 1.642793,-0.120404 1.25182,-0.08591 2.770401,-0.180279 4.277259,-0.266652 1.506855,-0.08637 3.00214,-0.164688 4.207494,-0.219623 0.602679,-0.02747 1.133025,-0.04942 1.555978,-0.06305 0.422952,-0.01363 0.738431,-0.01918 0.91209,-0.01497 0.146801,0.0035 0.284652,0.0118 0.414443,0.02479 0.129794,0.01299 0.251577,0.03103 0.365871,0.05426 0.114292,0.02323 0.221126,0.05152 0.321427,0.08578 0.100298,0.03426 0.193823,0.07433 0.281635,0.120407 0.08782,0.04608 0.170178,0.0984 0.247015,0.157096 0.07684,0.05869 0.148122,0.123761 0.21549,0.195853 0.06737,0.07209 0.130763,0.15091 0.19017,0.237196 0.05941,0.08629 0.114995,0.179848 0.167949,0.28112 0.05974,0.114263 0.106334,0.212344 0.140557,0.303339 0.03423,0.091 0.05614,0.175141 0.06718,0.260967 0.01103,0.08582 0.01085,0.173579 0.0011,0.272335 -0.0098,0.09875 -0.02901,0.208182 -0.05736,0.337963 -0.02138,0.09793 -0.04483,0.187166 -0.07183,0.2682 -0.027,0.08104 -0.05801,0.154136 -0.09405,0.22066 -0.03604,0.06652 -0.07706,0.126479 -0.125574,0.180867 -0.04851,0.05439 -0.104045,0.103163 -0.168465,0.147793 -0.06442,0.04463 -0.137933,0.08522 -0.221692,0.122476 -0.08376,0.03726 -0.178205,0.07109 -0.284737,0.103351 -0.106534,0.03226 -0.224864,0.06286 -0.357603,0.0925 -0.132739,0.02964 -0.279453,0.05845 -0.441833,0.08785 -0.541451,0.09803 -1.886762,0.353711 -2.989482,0.567925 -0.275677,0.05356 -0.619744,0.113954 -1.005623,0.17725 -0.385879,0.0633 -0.813599,0.129133 -1.256252,0.194302 -0.442656,0.06517 -0.900684,0.12944 -1.34669,0.188619 -0.446005,0.05918 -0.879956,0.113321 -1.275889,0.158647 -1.170755,0.134032 -2.160709,0.254413 -2.99775,0.365871 -0.418521,0.05572 -0.798836,0.109254 -1.144633,0.161229 -0.3458,0.05197 -0.656682,0.102447 -0.936895,0.151929 -0.280212,0.04948 -0.529611,0.09799 -0.751374,0.146243 -0.221766,0.04825 -0.416073,0.09642 -0.586528,0.144696 -0.170456,0.04828 -0.317104,0.09668 -0.443384,0.146243 -0.12628,0.04957 -0.232182,0.09981 -0.321426,0.151929 -0.05747,0.03354 -0.102463,0.06486 -0.136427,0.09767 -0.03397,0.03281 -0.05701,0.06734 -0.07028,0.108006 -0.01328,0.04066 -0.01701,0.08758 -0.01241,0.144692 0.0046,0.05711 0.01752,0.124556 0.03721,0.206706 0.0131,0.05458 0.03613,0.11303 0.06666,0.172082 0.03054,0.05905 0.06872,0.118386 0.11162,0.175184 0.0429,0.0568 0.09089,0.110831 0.141078,0.158646 0.05018,0.04782 0.102648,0.08986 0.155028,0.121957 0.108852,0.0667 0.250833,0.136753 0.421679,0.209807 0.17085,0.07305 0.370581,0.148783 0.594281,0.225825 0.2237,0.07704 0.471564,0.155426 0.738973,0.234095 0.267407,0.07867 0.554308,0.157708 0.856277,0.235643 0.301974,0.07794 0.618802,0.155115 0.946197,0.22996 0.327393,0.07485 0.665052,0.147132 1.008724,0.216525 0.343673,0.06939 0.693574,0.135821 1.044379,0.197405 0.350809,0.06158 0.702818,0.118602 1.051616,0.170014 0.467736,0.06895 0.900123,0.13808 1.331185,0.214458 0.431064,0.07638 0.860716,0.160051 1.323435,0.258381 0.462714,0.09833 0.958133,0.210913 1.520836,0.345715 0.562705,0.134805 1.192897,0.291687 1.923915,0.477491 0.381256,0.09691 0.985652,0.232913 1.652611,0.374137 0.666959,0.141226 1.396069,0.287779 2.026751,0.405143 0.507399,0.09443 0.908793,0.17109 1.232482,0.238747 0.323688,0.06766 0.569732,0.126084 0.76791,0.183967 0.09909,0.02894 0.186476,0.05765 0.265102,0.08733 0.07863,0.02968 0.148503,0.06046 0.21394,0.09302 0.06544,0.03255 0.12651,0.06736 0.186036,0.104902 0.05952,0.03755 0.117912,0.07781 0.1788,0.122475 0.07027,0.05155 0.137036,0.1074 0.200504,0.166915 0.06347,0.05951 0.123481,0.122743 0.179316,0.188619 0.05584,0.06588 0.107649,0.134514 0.15503,0.205156 0.04738,0.07064 0.09006,0.143232 0.128159,0.21704 0.0381,0.07381 0.07174,0.148902 0.09973,0.224274 0.02799,0.07538 0.05063,0.150998 0.0677,0.226343 0.01707,0.07535 0.02828,0.150556 0.03359,0.224277 0.0053,0.07372 0.0047,0.146031 -0.0026,0.216524 -0.0059,0.05703 -0.01998,0.117205 -0.04082,0.1788 -0.02085,0.06159 -0.04857,0.124487 -0.08217,0.188103 -0.0336,0.06362 -0.07318,0.127588 -0.117306,0.190685 -0.04413,0.0631 -0.09278,0.125482 -0.145211,0.185518 -0.05243,0.06004 -0.108389,0.118163 -0.166915,0.172601 -0.05852,0.05444 -0.119505,0.105114 -0.181901,0.151411 -0.06239,0.0463 -0.126122,0.08789 -0.190167,0.123507 -0.06405,0.03562 -0.128757,0.06546 -0.192238,0.08785 -0.04818,0.01699 -0.107043,0.03141 -0.176734,0.04393 -0.06969,0.01252 -0.149884,0.02289 -0.240295,0.031 -0.180824,0.01622 -0.402526,0.02376 -0.661458,0.02273 -0.258932,-0.0011 -0.555061,-0.01021 -0.885735,-0.0279 -0.330671,-0.0177 -0.695873,-0.04368 -1.091922,-0.07752 -0.39605,-0.03384 -0.822897,-0.07562 -1.277959,-0.125055 -0.455059,-0.04943 -0.938199,-0.106561 -1.445905,-0.171051 -0.507707,-0.06449 -1.040234,-0.136493 -1.594218,-0.21549 -0.553985,-0.079 -1.129512,-0.164904 -1.723409,-0.257865 -1.715942,-0.2686 -3.152031,-0.488022 -4.359425,-0.663525 -1.207392,-0.175503 -2.186017,-0.307089 -2.986897,-0.401526 -0.400439,-0.04722 -0.756412,-0.08551 -1.074352,-0.114721 -0.317944,-0.02921 -0.597744,-0.04931 -0.845944,-0.06201 -0.2482,-0.0127 -0.465079,-0.01781 -0.656291,-0.01551 -0.191212,0.0024 -0.356867,0.01159 -0.503846,0.02739 -0.285345,0.03067 -0.532863,0.06754 -0.744141,0.111104 -0.105637,0.02178 -0.202149,0.04553 -0.289904,0.0708 -0.08775,0.02527 -0.166901,0.05221 -0.237193,0.08113 -0.07029,0.02893 -0.131747,0.05975 -0.185002,0.0925 -0.05326,0.03276 -0.09824,0.06762 -0.134877,0.104386 -0.03664,0.03676 -0.06482,0.07533 -0.08526,0.116274 -0.02045,0.04094 -0.03305,0.08389 -0.03773,0.129191 -0.0033,0.03215 -0.0061,0.06059 -5.29e-4,0.08836 0.0055,0.02778 0.01942,0.05489 0.04909,0.08527 0.02967,0.03037 0.07511,0.06393 0.144177,0.10387 0.06907,0.03993 0.16152,0.08616 0.285255,0.142626 0.247467,0.112927 0.619945,0.265941 1.177705,0.486791 0.55776,0.220853 1.301123,0.509998 2.291334,0.894519 0.788191,0.306075 2.252888,0.882372 3.255097,1.28106 0.501105,0.199345 1.078773,0.415208 1.606103,0.602546 0.527333,0.187341 1.0043,0.346078 1.30328,0.430982 0.293332,0.0833 0.603056,0.184883 0.920874,0.300239 0.317817,0.115361 0.643837,0.244761 0.969968,0.383439 0.32613,0.138679 0.652213,0.286515 0.970483,0.439767 0.318268,0.153252 0.628709,0.311692 0.922941,0.470773 0.294233,0.159081 0.572283,0.318741 0.826307,0.474906 0.254021,0.156165 0.483973,0.308697 0.681612,0.453202 0.09882,0.07225 0.189611,0.142626 0.271301,0.210323 0.08169,0.0677 0.154501,0.13277 0.21704,0.19482 0.06254,0.06205 0.1147,0.121426 0.156062,0.176734 0.04137,0.05531 0.07174,0.106521 0.08992,0.153996 0.0309,0.08072 0.05525,0.162419 0.07338,0.243914 0.01812,0.08149 0.02999,0.162933 0.03566,0.243911 0.0057,0.08098 0.0055,0.161637 -0.0011,0.240813 -0.0065,0.07918 -0.01939,0.15697 -0.03772,0.233061 -0.01834,0.07609 -0.04249,0.15049 -0.07235,0.222208 -0.02986,0.07172 -0.06537,0.140647 -0.106455,0.206705 -0.04108,0.06606 -0.08753,0.128988 -0.139525,0.188103 -0.052,0.05912 -0.109485,0.114478 -0.172082,0.165365 L 52.626537,96.8793 50.999246,96.636939 c -0.223753,-0.03335 -0.476096,-0.07677 -0.740008,-0.127124 -0.263911,-0.05036 -0.539474,-0.107837 -0.810802,-0.16795 -0.271327,-0.06011 -0.538453,-0.122899 -0.78445,-0.185518 -0.245994,-0.06262 -0.470956,-0.125058 -0.658873,-0.182935 -0.187915,-0.05788 -0.422164,-0.12413 -0.684713,-0.194821 -0.262548,-0.07069 -0.553339,-0.145632 -0.854212,-0.220141 -0.601742,-0.149016 -1.244132,-0.296871 -1.781286,-0.40721 -0.537155,-0.110334 -1.171102,-0.255651 -1.760099,-0.401008 -0.294499,-0.07268 -0.577847,-0.145148 -0.83199,-0.213423 -0.254145,-0.06828 -0.479076,-0.132482 -0.657325,-0.187587 -0.712994,-0.220409 -1.977121,-0.598752 -2.809132,-0.841293 -0.416004,-0.121275 -0.890026,-0.265412 -1.318265,-0.399458 -0.428236,-0.134048 -0.810646,-0.258442 -1.044379,-0.340547 -0.233733,-0.08211 -0.55484,-0.176118 -0.883669,-0.262001 -0.328829,-0.08588 -0.665514,-0.163677 -0.93069,-0.211873 -0.2398,-0.04359 -0.420122,-0.07584 -0.556041,-0.09508 -0.135916,-0.01924 -0.227147,-0.02498 -0.289904,-0.01498 -0.03138,0.005 -0.05557,0.01365 -0.07441,0.02687 -0.01884,0.01323 -0.03274,0.03064 -0.04289,0.05271 -0.02032,0.04414 -0.02708,0.106482 -0.03566,0.189654 -0.0047,0.04598 5.29e-4,0.1061 0.01344,0.174664 0.01289,0.06857 0.03373,0.146045 0.06097,0.227378 0.02725,0.08133 0.06091,0.166346 0.09922,0.250629 0.03831,0.08428 0.08104,0.167529 0.127125,0.244946 0.06286,0.105587 0.146182,0.231196 0.246496,0.372589 0.100317,0.141391 0.217868,0.298458 0.348816,0.467669 0.261898,0.338432 0.577908,0.724731 0.92139,1.126549 0.343488,0.401817 0.714214,0.819258 1.084689,1.220597 0.370475,0.401336 0.740788,0.786455 1.083656,1.123444 0.668597,0.657151 1.582092,1.555372 2.029849,1.99626 0.223883,0.220446 0.520819,0.490141 0.818555,0.746721 0.297738,0.25658 0.596381,0.50036 0.82424,0.66921 0.157946,0.11704 0.292672,0.22331 0.408761,0.32453 0.116088,0.10122 0.213669,0.19743 0.297656,0.29404 0.08399,0.0966 0.154371,0.1934 0.216006,0.29662 0.06164,0.10323 0.114252,0.21277 0.163298,0.33383 0.06229,0.15374 0.109196,0.27094 0.140044,0.36742 0.01543,0.0482 0.02663,0.0916 0.03411,0.13126 0.0075,0.0397 0.01085,0.0757 0.01035,0.11059 -5.29e-4,0.0349 -0.0048,0.0688 -0.01344,0.10283 -0.0086,0.034 -0.02103,0.0685 -0.03772,0.10542 -0.0334,0.0739 -0.08313,0.15759 -0.149344,0.26614 -0.04648,0.0762 -0.09702,0.14606 -0.151413,0.21032 -0.0544,0.0643 -0.112974,0.12289 -0.175183,0.17518 -0.06221,0.0523 -0.128006,0.0982 -0.197922,0.1385 -0.06991,0.0403 -0.143658,0.0746 -0.221173,0.10283 -0.07752,0.0282 -0.158901,0.0505 -0.243914,0.0667 -0.08501,0.0161 -0.173728,0.0265 -0.266134,0.0305 -0.0924,0.004 -0.188661,0.002 -0.288353,-0.006 -0.09969,-0.008 -0.202666,-0.0225 -0.309542,-0.0429 -0.13264,-0.0252 -0.263112,-0.0612 -0.404111,-0.11524 -0.140996,-0.054 -0.292782,-0.12634 -0.467672,-0.22324 -0.174887,-0.0969 -0.372885,-0.21865 -0.607198,-0.37259 -0.234312,-0.15393 -0.504968,-0.3397 -0.824238,-0.56482 -0.627081,-0.44216 -1.220835,-0.87461 -1.76785,-1.28571 -0.547016,-0.4111 -1.047446,-0.80106 -1.486731,-1.15858 -0.219644,-0.17877 -0.423809,-0.34942 -0.611333,-0.510566 C 33.968234,99.689555 33.797654,99.538216 33.645712,99.3975 33.493767,99.256784 33.360192,99.126882 33.247286,99.009409 33.134378,98.89194 33.042263,98.786627 32.97185,98.695217 32.884675,98.582044 32.790999,98.469371 32.691765,98.357254 32.59253,98.245136 32.487332,98.133771 32.377572,98.02394 32.26781,97.914111 32.153197,97.805722 32.034439,97.699412 31.915683,97.593103 31.793242,97.488846 31.66702,97.387286 c -0.126222,-0.101558 -0.255937,-0.20053 -0.388091,-0.296106 -0.132154,-0.09557 -0.267036,-0.187595 -0.403592,-0.275952 -0.136555,-0.08836 -0.275019,-0.172789 -0.414444,-0.252696 -0.139425,-0.07991 -0.279884,-0.155599 -0.420648,-0.225827 -0.258331,-0.128881 -0.528767,-0.269611 -0.756541,-0.392224 -0.227777,-0.122616 -0.41297,-0.22707 -0.500229,-0.28422 -0.04363,-0.02858 -0.177531,-0.08308 -0.382405,-0.157097 -0.204875,-0.07402 -0.480494,-0.167293 -0.807186,-0.273886 -0.653386,-0.213183 -1.51076,-0.478877 -2.414839,-0.745172 -1.550641,-0.45674 -2.741964,-0.80875 -3.671612,-1.08934 -0.929648,-0.280591 -1.597959,-0.48963 -2.102712,-0.660424 -0.252379,-0.0854 -0.46355,-0.161123 -0.646473,-0.23151 -0.182922,-0.07039 -0.337444,-0.135798 -0.475424,-0.199472 -0.137981,-0.06368 -0.259689,-0.125947 -0.377238,-0.191204 -0.117549,-0.06526 -0.230801,-0.133123 -0.352433,-0.208256 -0.147569,-0.09115 -0.287655,-0.171551 -0.422714,-0.24133 -0.135057,-0.06978 -0.265263,-0.129024 -0.393774,-0.177765 -0.128511,-0.04874 -0.255508,-0.08719 -0.38344,-0.115239 -0.127928,-0.02805 -0.256841,-0.04603 -0.390157,-0.05374 -0.133313,-0.0077 -0.270814,-0.0051 -0.415478,0.0072 -0.144661,0.0123 -0.296391,0.0342 -0.458369,0.06614 -0.161978,0.03194 -0.334092,0.07381 -0.519348,0.125058 -0.185256,0.05125 -0.383913,0.112205 -0.598414,0.182417 -0.164756,0.05394 -0.327506,0.102809 -0.480591,0.144696 -0.153086,0.04189 -0.296527,0.07673 -0.422712,0.103351 -0.126188,0.02662 -0.234786,0.04456 -0.318844,0.05271 -0.04012,0.0039 -0.05317,-0.0028 -0.08113,-0.0036 v 18.688262 c 0,2.1254 1.711069,3.83646 3.836458,3.83646 h 92.21349 c 2.12539,0 3.83646,-1.71106 3.83646,-3.83646 V 91.690458 c -0.0595,0.02553 -0.22718,0.01794 -0.47232,-0.02223 -0.25454,-0.0417 -0.57956,-0.113962 -0.91364,-0.206706 -0.43496,-0.120745 -0.80416,-0.206735 -1.13068,-0.255799 -0.32653,-0.04906 -0.61027,-0.06114 -0.87592,-0.03359 -0.26565,0.02755 -0.51301,0.09451 -0.76533,0.203605 -0.25231,0.10909 -0.5098,0.260223 -0.79633,0.455787 -0.23617,0.161192 -0.4412,0.29274 -0.71107,0.43253 -0.26987,0.13979 -0.60477,0.288017 -1.10122,0.481624 -0.99291,0.387212 -2.63156,0.956945 -5.68803,2.01073 -0.89101,0.3072 -1.735666,0.611492 -2.378662,0.854212 -0.642998,0.242721 -1.084358,0.424167 -1.168921,0.485241 -0.16914,0.122132 -0.720341,0.451734 -1.224732,0.732774 -0.274834,0.153128 -0.547577,0.326758 -0.812353,0.515728 -0.264777,0.188974 -0.521367,0.393312 -0.764294,0.607717 -0.24293,0.214405 -0.472324,0.438745 -0.681612,0.668176 -0.209291,0.22943 -0.398896,0.464097 -0.562758,0.698148 -0.132353,0.18905 -0.350549,0.436755 -0.641305,0.731735 -0.290753,0.29498 -0.653873,0.63725 -1.076418,1.01441 -0.845092,0.75432 -1.92728,1.64898 -3.13986,2.5895 -0.617376,0.47886 -1.046409,0.79249 -1.386996,1.00201 -0.170294,0.10476 -0.318429,0.18355 -0.456819,0.24391 -0.138393,0.0604 -0.267073,0.10258 -0.398426,0.13384 -0.21168,0.0504 -0.410329,0.0756 -0.595312,0.076 -0.184984,5.3e-4 -0.356222,-0.0241 -0.513665,-0.0734 -0.15744,-0.0493 -0.300895,-0.12341 -0.429948,-0.22221 -0.12905,-0.0988 -0.243832,-0.22252 -0.343649,-0.37052 -0.07109,-0.10541 -0.124494,-0.18661 -0.161229,-0.2589 -0.03674,-0.0723 -0.05675,-0.13541 -0.06098,-0.20515 -0.0085,-0.13949 0.04615,-0.30471 0.15658,-0.61754 0.08696,-0.24634 0.191368,-0.44632 0.350367,-0.64699 0.158996,-0.20067 0.372567,-0.40186 0.677476,-0.65009 0.439862,-0.35811 1.149437,-1.02796 1.576649,-1.48879 0.42722,-0.46083 1.298861,-1.400291 1.936832,-2.08721 0.654331,-0.704517 1.40965,-1.606072 2.059305,-2.440163 0.324829,-0.417044 0.622988,-0.817364 0.869199,-1.16737 0.24621,-0.350007 0.440076,-0.649931 0.556037,-0.866614 0.08505,-0.158869 0.157097,-0.340418 0.204124,-0.505396 0.04702,-0.164976 0.06894,-0.31319 0.05529,-0.404625 -0.01236,-0.0827 -0.02162,-0.144933 -0.04393,-0.188103 -0.0223,-0.04317 -0.05726,-0.06728 -0.120404,-0.07441 -0.126293,-0.01426 -0.36513,0.03988 -0.840258,0.148828 -0.52542,0.120441 -1.331606,0.370697 -1.791107,0.556038 -0.45951,0.18533 -1.506371,0.566261 -2.326471,0.84646 -0.820103,0.280181 -2.06557,0.716283 -2.76779,0.968933 -0.70222,0.25267 -2.146464,0.6794 -3.209624,0.94878 -1.063141,0.269381 -2.539047,0.707041 -3.279386,0.972551 -0.370176,0.132754 -0.888103,0.289268 -1.42472,0.43408 -0.536617,0.144815 -1.091819,0.278352 -1.535824,0.365353 l -1.614371,0.316261 -0.468189,-0.346749 c -0.129698,-0.09597 -0.239535,-0.210757 -0.327628,-0.338998 -0.0881,-0.128243 -0.154892,-0.269777 -0.198437,-0.420129 -0.04355,-0.150355 -0.06389,-0.309501 -0.05994,-0.471807 0.0039,-0.162304 0.03243,-0.327864 0.08682,-0.491959 0.03198,-0.09651 0.111699,-0.211912 0.230994,-0.341582 0.119296,-0.129667 0.278371,-0.273489 0.469223,-0.426847 0.381698,-0.306713 0.89063,-0.651166 1.463992,-0.995804 0.573363,-0.344636 1.211064,-0.689544 1.850017,-0.996321 0.638951,-0.306779 1.2793,-0.575807 1.857767,-0.768945 0.589611,-0.196871 1.876248,-0.720868 2.859257,-1.164788 0.983009,-0.44391 2.420172,-1.086681 3.193602,-1.428338 1.94319,-0.858427 2.917677,-1.289208 3.401862,-1.537372 0.242091,-0.124081 0.361532,-0.202747 0.41806,-0.266134 0.05653,-0.06339 0.0504,-0.11176 0.04083,-0.175699 -0.01347,-0.09007 -0.05781,-0.169669 -0.134359,-0.239778 -0.07655,-0.07011 -0.185584,-0.130517 -0.328662,-0.181901 -0.143079,-0.05139 -0.320257,-0.09374 -0.5333,-0.127643 -0.213045,-0.0339 -0.461825,-0.05935 -0.748276,-0.077 -0.29509,-0.01818 -0.66489,-0.0077 -1.159618,0.04031 -0.494729,0.04799 -1.114214,0.133249 -1.909961,0.264067 -1.591498,0.261636 -3.886647,0.705932 -7.290512,1.398881 -1.178102,0.239827 -2.28382,0.448644 -3.292305,0.623734 -1.008486,0.175091 -1.919648,0.316445 -2.707844,0.42013 -0.788197,0.103685 -1.453708,0.169727 -1.97094,0.195336 -0.517234,0.02561 -0.885991,0.01056 -1.081587,-0.04857 -0.128873,-0.03896 -0.262829,-0.106455 -0.391708,-0.19327 -0.128881,-0.08682 -0.253058,-0.192817 -0.363286,-0.307991 -0.110228,-0.115175 -0.206132,-0.239762 -0.279053,-0.363802 -0.07292,-0.124039 -0.122571,-0.247811 -0.139526,-0.361219 -0.02096,-0.140177 -0.01638,-0.289224 0.01085,-0.441317 0.02723,-0.152091 0.07685,-0.30692 0.146243,-0.457854 0.0694,-0.150932 0.15851,-0.297894 0.264068,-0.434597 0.105555,-0.136702 0.227578,-0.263189 0.363283,-0.372589 0.117578,-0.09479 0.226211,-0.17291 0.353984,-0.243911 0.127775,-0.071 0.274918,-0.134689 0.470257,-0.201538 0.390676,-0.133697 0.973545,-0.278781 1.978689,-0.513665 1.249362,-0.291941 2.887715,-0.717854 3.640606,-0.946195 1.443601,-0.437811 2.487887,-0.740664 3.403409,-0.979268 0.915522,-0.238604 1.70211,-0.412882 2.630331,-0.593246 0.692195,-0.134488 1.396561,-0.292037 2.076876,-0.461986 0.680313,-0.16995 1.336993,-0.352148 1.933216,-0.535369 0.59622,-0.183219 1.13208,-0.367787 1.571995,-0.542086 0.439917,-0.1743 0.783889,-0.338437 0.995288,-0.481624 0.101711,-0.06892 0.202129,-0.176136 0.282671,-0.293521 0.08054,-0.117387 0.141115,-0.244774 0.162263,-0.355018 0.03187,-0.165925 0.039,-0.272393 0.0088,-0.352432 -0.03021,-0.08004 -0.09814,-0.13407 -0.216008,-0.195856 -0.183055,-0.09599 -0.432258,-0.182618 -0.777214,-0.263548 -0.344955,-0.08093 -0.785434,-0.156105 -1.349787,-0.229444 -1.128707,-0.146678 -2.753815,-0.285346 -5.105114,-0.446485 -0.795187,-0.05449 -1.745171,-0.137491 -2.635499,-0.227375 -0.890328,-0.08989 -1.720689,-0.186833 -2.276348,-0.268719 -1.11134,-0.163761 -2.466864,-0.357711 -3.012218,-0.430979 -0.327099,-0.04395 -0.591404,-0.08891 -0.807185,-0.143661 -0.215784,-0.05475 -0.382961,-0.119264 -0.515731,-0.202573 -0.132774,-0.08331 -0.231479,-0.185084 -0.309544,-0.314709 -0.07806,-0.129624 -0.135925,-0.28689 -0.187585,-0.480592 -0.06846,-0.256706 -0.09848,-0.435234 -0.08423,-0.607713 0.01423,-0.172479 0.07294,-0.33936 0.181902,-0.573093 0.09657,-0.207153 0.2058,-0.383643 0.33383,-0.533818 0.128026,-0.150172 0.274719,-0.273553 0.445968,-0.373621 0.171249,-0.100065 0.367014,-0.177263 0.593243,-0.234092 0.226232,-0.05683 0.483206,-0.09374 0.776182,-0.114205 0.69315,-0.04842 3.66382,-0.0415 6.68228,-0.0062 3.018456,0.0353 6.084617,0.09901 6.969082,0.16588 0.687359,0.05197 1.396196,0.0703 2.100646,0.05788 0.704454,-0.01241 1.404687,-0.05528 2.07481,-0.126606 0.670123,-0.07133 1.31009,-0.170823 1.894459,-0.29559 0.584367,-0.124767 1.112922,-0.274786 1.56011,-0.447519 0.182034,-0.07031 0.374674,-0.172916 0.574643,-0.303855 0.199967,-0.13094 0.407213,-0.290523 0.617533,-0.475425 0.210322,-0.184901 0.424076,-0.39515 0.637169,-0.627351 0.213096,-0.232201 0.425784,-0.486291 0.634072,-0.759126 0.209595,-0.27455 0.362799,-0.495028 0.453202,-0.692981 0.0452,-0.09898 0.07469,-0.192225 0.08733,-0.283705 0.01265,-0.09148 0.0088,-0.181099 -0.01291,-0.272851 -0.02178,-0.09175 -0.06136,-0.185979 -0.119372,-0.285771 -0.05802,-0.09979 -0.134885,-0.205309 -0.230995,-0.320911 -0.19222,-0.231198 -0.462391,-0.501801 -0.818039,-0.842841 -0.303159,-0.290713 -0.577823,-0.536673 -0.837157,-0.744659 -0.259334,-0.207986 -0.503423,-0.377883 -0.744141,-0.517797 -0.240718,-0.139912 -0.478226,-0.249405 -0.725537,-0.335897 -0.247309,-0.08649 -0.504302,-0.150193 -0.783413,-0.197921 -0.258829,-0.04426 -0.476435,-0.09382 -0.669211,-0.160198 -0.192775,-0.06638 -0.360627,-0.149759 -0.519864,-0.260964 -0.159239,-0.111204 -0.309972,-0.250176 -0.468191,-0.428916 -0.158215,-0.178736 -0.323953,-0.397131 -0.513662,-0.666109 -0.333126,-0.472313 -0.606739,-0.918983 -0.823206,-1.348754 -0.216466,-0.42977 -0.37583,-0.842528 -0.480073,-1.246952 -0.05212,-0.202213 -0.09034,-0.402415 -0.115239,-0.601514 -0.0249,-0.199099 -0.0364,-0.397177 -0.03462,-0.595312 0.0019,-0.198136 0.01656,-0.396505 0.04444,-0.595829 0.02789,-0.199324 0.06902,-0.39937 0.122473,-0.60203 0.08608,-0.326374 0.189666,-0.580761 0.312642,-0.763262 0.06149,-0.09125 0.127733,-0.164735 0.198953,-0.220141 0.07122,-0.05541 0.147632,-0.09301 0.228928,-0.112655 0.0813,-0.01966 0.167706,-0.02119 0.259416,-0.0052 0.09171,0.01603 0.188476,0.04965 0.290939,0.101285 0.204922,0.10327 0.431638,0.277794 0.681611,0.522965 0.29305,0.287427 0.625782,0.585827 0.975651,0.878498 0.349867,0.292675 0.717048,0.579517 1.080038,0.845429 0.362989,0.265911 0.721783,0.510643 1.054197,0.717785 0.332418,0.20714 0.63844,0.377148 0.896589,0.493509 0.542628,0.244589 1.460179,0.734849 2.039151,1.089856 0.297098,0.182176 0.604362,0.350499 0.91984,0.503846 0.315479,0.153347 0.639556,0.29173 0.969968,0.414962 0.330409,0.123232 0.667348,0.231145 1.00924,0.322977 0.341892,0.09183 0.688774,0.167716 1.038696,0.226859 0.392755,0.06639 0.721741,0.134403 1.022163,0.221691 0.30042,0.08729 0.57185,0.193588 0.84853,0.33745 0.27667,0.143859 0.55904,0.325109 0.88056,0.561205 0.32153,0.236096 0.68228,0.527421 1.11725,0.891418 0.89669,0.75038 1.85169,1.498677 2.12183,1.662949 0.27013,0.164269 1.41785,0.960938 2.55075,1.770433 0.75883,0.542197 1.32363,0.970682 1.76785,1.34824 0.44422,0.377555 0.76788,0.704191 1.04542,1.042829 0.18794,0.229322 0.32942,0.401248 0.46095,0.539501 0.13153,0.138255 0.25307,0.24284 0.40204,0.336415 0.14898,0.09357 0.32507,0.176533 0.56534,0.271817 0.23817,0.09445 0.54193,0.201615 0.94206,0.343133 h 5.01107 a 3.972802,3.972802 0 0 0 2.55488,-7.013528 L 65.035574,22.380481 a 3.972802,3.972802 0 0 0 -2.5492,-0.932243 z" />
  </g>
</svg>
